<svg width="86" height="78" viewBox="0 0 86 78" fill="none" xmlns="http://www.w3.org/2000/svg">
<g opacity="0.3">
<mask id="mask0_1_71" style="mask-type:alpha" maskUnits="userSpaceOnUse" x="0" y="0" width="8" height="8">
<path d="M3.90962 7.97735C6.06885 7.97735 7.81925 6.19152 7.81925 3.98865C7.81925 1.78577 6.06885 0 3.90962 0C1.7504 0 0 1.78577 0 3.98865C0 6.19152 1.7504 7.97735 3.90962 7.97735Z" fill="url(#paint0_linear_1_71)"/>
</mask>
<g mask="url(#mask0_1_71)">
<path d="M3.90962 7.97735C6.06885 7.97735 7.81925 6.19152 7.81925 3.98865C7.81925 1.78577 6.06885 0 3.90962 0C1.7504 0 0 1.78577 0 3.98865C0 6.19152 1.7504 7.97735 3.90962 7.97735Z" fill="url(#paint1_linear_1_71)"/>
</g>
<mask id="mask1_1_71" style="mask-type:alpha" maskUnits="userSpaceOnUse" x="22" y="0" width="9" height="8">
<path d="M26.5525 7.97735C28.7117 7.97735 30.4621 6.19152 30.4621 3.98865C30.4621 1.78577 28.7117 0 26.5525 0C24.3933 0 22.6429 1.78577 22.6429 3.98865C22.6429 6.19152 24.3933 7.97735 26.5525 7.97735Z" fill="url(#paint2_linear_1_71)"/>
</mask>
<g mask="url(#mask1_1_71)">
<path d="M26.5526 7.97735C28.7118 7.97735 30.4623 6.19152 30.4623 3.98865C30.4623 1.78577 28.7118 0 26.5526 0C24.3934 0 22.643 1.78577 22.643 3.98865C22.643 6.19152 24.3934 7.97735 26.5526 7.97735Z" fill="url(#paint3_linear_1_71)"/>
</g>
<mask id="mask2_1_71" style="mask-type:alpha" maskUnits="userSpaceOnUse" x="45" y="0" width="9" height="8">
<path d="M49.1954 7.97735C51.3546 7.97735 53.105 6.19152 53.105 3.98865C53.105 1.78577 51.3546 0 49.1954 0C47.0361 0 45.2857 1.78577 45.2857 3.98865C45.2857 6.19152 47.0361 7.97735 49.1954 7.97735Z" fill="url(#paint4_linear_1_71)"/>
</mask>
<g mask="url(#mask2_1_71)">
<path d="M49.1959 7.97735C51.3551 7.97735 53.1055 6.19152 53.1055 3.98865C53.1055 1.78577 51.3551 0 49.1959 0C47.0367 0 45.2863 1.78577 45.2863 3.98865C45.2863 6.19152 47.0367 7.97735 49.1959 7.97735Z" fill="url(#paint5_linear_1_71)"/>
</g>
<mask id="mask3_1_71" style="mask-type:alpha" maskUnits="userSpaceOnUse" x="67" y="0" width="9" height="8">
<path d="M71.8381 7.97735C73.9974 7.97735 75.7478 6.19152 75.7478 3.98865C75.7478 1.78577 73.9974 0 71.8381 0C69.6789 0 67.9285 1.78577 67.9285 3.98865C67.9285 6.19152 69.6789 7.97735 71.8381 7.97735Z" fill="url(#paint6_linear_1_71)"/>
</mask>
<g mask="url(#mask3_1_71)">
<path d="M71.8386 7.97735C73.9979 7.97735 75.7482 6.19152 75.7482 3.98865C75.7482 1.78577 73.9979 0 71.8386 0C69.6794 0 67.929 1.78577 67.929 3.98865C67.929 6.19152 69.6794 7.97735 71.8386 7.97735Z" fill="url(#paint7_linear_1_71)"/>
</g>
<mask id="mask4_1_71" style="mask-type:alpha" maskUnits="userSpaceOnUse" x="0" y="20" width="8" height="9">
<path d="M3.90962 28.0037C6.06885 28.0037 7.81925 26.2179 7.81925 24.015C7.81925 21.8122 6.06885 20.0264 3.90962 20.0264C1.7504 20.0264 0 21.8122 0 24.015C0 26.2179 1.7504 28.0037 3.90962 28.0037Z" fill="url(#paint8_linear_1_71)"/>
</mask>
<g mask="url(#mask4_1_71)">
<path d="M3.90962 28.0037C6.06885 28.0037 7.81925 26.218 7.81925 24.0151C7.81925 21.8122 6.06885 20.0265 3.90962 20.0265C1.7504 20.0265 0 21.8122 0 24.0151C0 26.218 1.7504 28.0037 3.90962 28.0037Z" fill="url(#paint9_linear_1_71)"/>
</g>
<mask id="mask5_1_71" style="mask-type:alpha" maskUnits="userSpaceOnUse" x="22" y="20" width="9" height="9">
<path d="M26.5525 28.0038C28.7117 28.0038 30.4621 26.218 30.4621 24.0151C30.4621 21.8123 28.7117 20.0265 26.5525 20.0265C24.3933 20.0265 22.6429 21.8123 22.6429 24.0151C22.6429 26.218 24.3933 28.0038 26.5525 28.0038Z" fill="url(#paint10_linear_1_71)"/>
</mask>
<g mask="url(#mask5_1_71)">
<path d="M26.5526 28.0037C28.7118 28.0037 30.4623 26.2179 30.4623 24.0151C30.4623 21.8122 28.7118 20.0264 26.5526 20.0264C24.3934 20.0264 22.643 21.8122 22.643 24.0151C22.643 26.2179 24.3934 28.0037 26.5526 28.0037Z" fill="url(#paint11_linear_1_71)"/>
</g>
<mask id="mask6_1_71" style="mask-type:alpha" maskUnits="userSpaceOnUse" x="45" y="20" width="9" height="9">
<path d="M49.1954 28.0038C51.3546 28.0038 53.105 26.218 53.105 24.0151C53.105 21.8123 51.3546 20.0265 49.1954 20.0265C47.0361 20.0265 45.2857 21.8123 45.2857 24.0151C45.2857 26.218 47.0361 28.0038 49.1954 28.0038Z" fill="url(#paint12_linear_1_71)"/>
</mask>
<g mask="url(#mask6_1_71)">
<path d="M49.1959 28.0037C51.3551 28.0037 53.1055 26.2179 53.1055 24.0151C53.1055 21.8122 51.3551 20.0264 49.1959 20.0264C47.0367 20.0264 45.2863 21.8122 45.2863 24.0151C45.2863 26.2179 47.0367 28.0037 49.1959 28.0037Z" fill="url(#paint13_linear_1_71)"/>
</g>
<mask id="mask7_1_71" style="mask-type:alpha" maskUnits="userSpaceOnUse" x="67" y="20" width="9" height="9">
<path d="M71.8381 28.0038C73.9974 28.0038 75.7478 26.218 75.7478 24.0151C75.7478 21.8123 73.9974 20.0265 71.8381 20.0265C69.6789 20.0265 67.9285 21.8123 67.9285 24.0151C67.9285 26.218 69.6789 28.0038 71.8381 28.0038Z" fill="url(#paint14_linear_1_71)"/>
</mask>
<g mask="url(#mask7_1_71)">
<path d="M71.8386 28.0037C73.9979 28.0037 75.7482 26.2179 75.7482 24.0151C75.7482 21.8122 73.9979 20.0264 71.8386 20.0264C69.6794 20.0264 67.929 21.8122 67.929 24.0151C67.929 26.2179 69.6794 28.0037 71.8386 28.0037Z" fill="url(#paint15_linear_1_71)"/>
</g>
<mask id="mask8_1_71" style="mask-type:alpha" maskUnits="userSpaceOnUse" x="0" y="40" width="8" height="8">
<path d="M3.90962 47.9887C6.06885 47.9887 7.81925 46.2029 7.81925 44C7.81925 41.7971 6.06885 40.0113 3.90962 40.0113C1.7504 40.0113 0 41.7971 0 44C0 46.2029 1.7504 47.9887 3.90962 47.9887Z" fill="url(#paint16_linear_1_71)"/>
</mask>
<g mask="url(#mask8_1_71)">
<path d="M3.90962 47.9888C6.06885 47.9888 7.81925 46.203 7.81925 44.0001C7.81925 41.7972 6.06885 40.0114 3.90962 40.0114C1.7504 40.0114 0 41.7972 0 44.0001C0 46.203 1.7504 47.9888 3.90962 47.9888Z" fill="url(#paint17_linear_1_71)"/>
</g>
<mask id="mask9_1_71" style="mask-type:alpha" maskUnits="userSpaceOnUse" x="22" y="40" width="9" height="8">
<path d="M26.5525 47.989C28.7117 47.989 30.4621 46.2032 30.4621 44.0003C30.4621 41.7974 28.7117 40.0116 26.5525 40.0116C24.3933 40.0116 22.6429 41.7974 22.6429 44.0003C22.6429 46.2032 24.3933 47.989 26.5525 47.989Z" fill="url(#paint18_linear_1_71)"/>
</mask>
<g mask="url(#mask9_1_71)">
<path d="M26.5526 47.9888C28.7118 47.9888 30.4623 46.203 30.4623 44.0001C30.4623 41.7972 28.7118 40.0114 26.5526 40.0114C24.3934 40.0114 22.643 41.7972 22.643 44.0001C22.643 46.203 24.3934 47.9888 26.5526 47.9888Z" fill="url(#paint19_linear_1_71)"/>
</g>
<mask id="mask10_1_71" style="mask-type:alpha" maskUnits="userSpaceOnUse" x="45" y="40" width="9" height="8">
<path d="M49.1954 47.989C51.3546 47.989 53.105 46.2032 53.105 44.0003C53.105 41.7974 51.3546 40.0116 49.1954 40.0116C47.0361 40.0116 45.2857 41.7974 45.2857 44.0003C45.2857 46.2032 47.0361 47.989 49.1954 47.989Z" fill="url(#paint20_linear_1_71)"/>
</mask>
<g mask="url(#mask10_1_71)">
<path d="M49.1959 47.9888C51.3551 47.9888 53.1055 46.203 53.1055 44.0001C53.1055 41.7972 51.3551 40.0114 49.1959 40.0114C47.0367 40.0114 45.2863 41.7972 45.2863 44.0001C45.2863 46.203 47.0367 47.9888 49.1959 47.9888Z" fill="url(#paint21_linear_1_71)"/>
</g>
<mask id="mask11_1_71" style="mask-type:alpha" maskUnits="userSpaceOnUse" x="67" y="40" width="9" height="8">
<path d="M71.8381 47.989C73.9974 47.989 75.7478 46.2032 75.7478 44.0003C75.7478 41.7974 73.9974 40.0116 71.8381 40.0116C69.6789 40.0116 67.9285 41.7974 67.9285 44.0003C67.9285 46.2032 69.6789 47.989 71.8381 47.989Z" fill="url(#paint22_linear_1_71)"/>
</mask>
<g mask="url(#mask11_1_71)">
<path d="M71.8386 47.9888C73.9979 47.9888 75.7482 46.203 75.7482 44.0001C75.7482 41.7972 73.9979 40.0114 71.8386 40.0114C69.6794 40.0114 67.929 41.7972 67.929 44.0001C67.929 46.203 69.6794 47.9888 71.8386 47.9888Z" fill="url(#paint23_linear_1_71)"/>
</g>
<mask id="mask12_1_71" style="mask-type:alpha" maskUnits="userSpaceOnUse" x="0" y="60" width="8" height="9">
<path d="M3.90962 68.0155C6.06885 68.0155 7.81925 66.2296 7.81925 64.0268C7.81925 61.8239 6.06885 60.0381 3.90962 60.0381C1.7504 60.0381 0 61.8239 0 64.0268C0 66.2296 1.7504 68.0155 3.90962 68.0155Z" fill="url(#paint24_linear_1_71)"/>
</mask>
<g mask="url(#mask12_1_71)">
<path d="M3.90962 68.0152C6.06885 68.0152 7.81925 66.2294 7.81925 64.0265C7.81925 61.8236 6.06885 60.0379 3.90962 60.0379C1.7504 60.0379 0 61.8236 0 64.0265C0 66.2294 1.7504 68.0152 3.90962 68.0152Z" fill="url(#paint25_linear_1_71)"/>
</g>
<mask id="mask13_1_71" style="mask-type:alpha" maskUnits="userSpaceOnUse" x="22" y="60" width="9" height="9">
<path d="M26.5525 68.0155C28.7117 68.0155 30.4621 66.2296 30.4621 64.0268C30.4621 61.8239 28.7117 60.0381 26.5525 60.0381C24.3933 60.0381 22.6429 61.8239 22.6429 64.0268C22.6429 66.2296 24.3933 68.0155 26.5525 68.0155Z" fill="url(#paint26_linear_1_71)"/>
</mask>
<g mask="url(#mask13_1_71)">
<path d="M26.5526 68.0152C28.7118 68.0152 30.4623 66.2294 30.4623 64.0265C30.4623 61.8236 28.7118 60.0379 26.5526 60.0379C24.3934 60.0379 22.643 61.8236 22.643 64.0265C22.643 66.2294 24.3934 68.0152 26.5526 68.0152Z" fill="url(#paint27_linear_1_71)"/>
</g>
<mask id="mask14_1_71" style="mask-type:alpha" maskUnits="userSpaceOnUse" x="45" y="60" width="9" height="9">
<path d="M49.1954 68.0155C51.3546 68.0155 53.105 66.2296 53.105 64.0268C53.105 61.8239 51.3546 60.0381 49.1954 60.0381C47.0361 60.0381 45.2857 61.8239 45.2857 64.0268C45.2857 66.2296 47.0361 68.0155 49.1954 68.0155Z" fill="url(#paint28_linear_1_71)"/>
</mask>
<g mask="url(#mask14_1_71)">
<path d="M49.1959 68.0152C51.3551 68.0152 53.1055 66.2294 53.1055 64.0265C53.1055 61.8236 51.3551 60.0379 49.1959 60.0379C47.0367 60.0379 45.2863 61.8236 45.2863 64.0265C45.2863 66.2294 47.0367 68.0152 49.1959 68.0152Z" fill="url(#paint29_linear_1_71)"/>
</g>
<mask id="mask15_1_71" style="mask-type:alpha" maskUnits="userSpaceOnUse" x="67" y="60" width="9" height="9">
<path d="M71.8381 68.0155C73.9974 68.0155 75.7478 66.2296 75.7478 64.0268C75.7478 61.8239 73.9974 60.0381 71.8381 60.0381C69.6789 60.0381 67.9285 61.8239 67.9285 64.0268C67.9285 66.2296 69.6789 68.0155 71.8381 68.0155Z" fill="url(#paint30_linear_1_71)"/>
</mask>
<g mask="url(#mask15_1_71)">
<path d="M71.8386 68.0152C73.9979 68.0152 75.7482 66.2294 75.7482 64.0265C75.7482 61.8236 73.9979 60.0379 71.8386 60.0379C69.6794 60.0379 67.929 61.8236 67.929 64.0265C67.929 66.2294 69.6794 68.0152 71.8386 68.0152Z" fill="url(#paint31_linear_1_71)"/>
</g>
</g>
<defs>
<linearGradient id="paint0_linear_1_71" x1="38.076" y1="92.4707" x2="-17.486" y2="-45.7764" gradientUnits="userSpaceOnUse">
<stop stop-color="#89C5CC"/>
<stop offset="1" stop-color="#89C5CC"/>
</linearGradient>
<linearGradient id="paint1_linear_1_71" x1="38.076" y1="92.4707" x2="-17.486" y2="-45.7764" gradientUnits="userSpaceOnUse">
<stop stop-color="#89C5CC"/>
<stop offset="1" stop-color="#89C5CC"/>
</linearGradient>
<linearGradient id="paint2_linear_1_71" x1="60.7189" y1="92.4707" x2="5.1569" y2="-45.7764" gradientUnits="userSpaceOnUse">
<stop stop-color="#89C5CC"/>
<stop offset="1" stop-color="#89C5CC"/>
</linearGradient>
<linearGradient id="paint3_linear_1_71" x1="60.719" y1="92.4707" x2="5.15704" y2="-45.7764" gradientUnits="userSpaceOnUse">
<stop stop-color="#89C5CC"/>
<stop offset="1" stop-color="#89C5CC"/>
</linearGradient>
<linearGradient id="paint4_linear_1_71" x1="83.3617" y1="92.4707" x2="27.7998" y2="-45.7764" gradientUnits="userSpaceOnUse">
<stop stop-color="#89C5CC"/>
<stop offset="1" stop-color="#89C5CC"/>
</linearGradient>
<linearGradient id="paint5_linear_1_71" x1="83.3623" y1="92.4707" x2="27.8003" y2="-45.7764" gradientUnits="userSpaceOnUse">
<stop stop-color="#89C5CC"/>
<stop offset="1" stop-color="#89C5CC"/>
</linearGradient>
<linearGradient id="paint6_linear_1_71" x1="106.005" y1="92.4707" x2="50.4426" y2="-45.7764" gradientUnits="userSpaceOnUse">
<stop stop-color="#89C5CC"/>
<stop offset="1" stop-color="#89C5CC"/>
</linearGradient>
<linearGradient id="paint7_linear_1_71" x1="106.005" y1="92.4707" x2="50.443" y2="-45.7764" gradientUnits="userSpaceOnUse">
<stop stop-color="#89C5CC"/>
<stop offset="1" stop-color="#89C5CC"/>
</linearGradient>
<linearGradient id="paint8_linear_1_71" x1="38.076" y1="112.496" x2="-17.4851" y2="-25.7499" gradientUnits="userSpaceOnUse">
<stop stop-color="#89C5CC"/>
<stop offset="1" stop-color="#89C5CC"/>
</linearGradient>
<linearGradient id="paint9_linear_1_71" x1="38.076" y1="112.496" x2="-17.4851" y2="-25.7499" gradientUnits="userSpaceOnUse">
<stop stop-color="#89C5CC"/>
<stop offset="1" stop-color="#89C5CC"/>
</linearGradient>
<linearGradient id="paint10_linear_1_71" x1="60.7189" y1="112.496" x2="5.15785" y2="-25.7499" gradientUnits="userSpaceOnUse">
<stop stop-color="#89C5CC"/>
<stop offset="1" stop-color="#89C5CC"/>
</linearGradient>
<linearGradient id="paint11_linear_1_71" x1="60.719" y1="112.496" x2="5.15798" y2="-25.7499" gradientUnits="userSpaceOnUse">
<stop stop-color="#89C5CC"/>
<stop offset="1" stop-color="#89C5CC"/>
</linearGradient>
<linearGradient id="paint12_linear_1_71" x1="83.3617" y1="112.496" x2="27.8007" y2="-25.7499" gradientUnits="userSpaceOnUse">
<stop stop-color="#89C5CC"/>
<stop offset="1" stop-color="#89C5CC"/>
</linearGradient>
<linearGradient id="paint13_linear_1_71" x1="83.3623" y1="112.496" x2="27.8013" y2="-25.7499" gradientUnits="userSpaceOnUse">
<stop stop-color="#89C5CC"/>
<stop offset="1" stop-color="#89C5CC"/>
</linearGradient>
<linearGradient id="paint14_linear_1_71" x1="106.005" y1="112.496" x2="50.4435" y2="-25.7499" gradientUnits="userSpaceOnUse">
<stop stop-color="#89C5CC"/>
<stop offset="1" stop-color="#89C5CC"/>
</linearGradient>
<linearGradient id="paint15_linear_1_71" x1="106.005" y1="112.496" x2="50.444" y2="-25.7499" gradientUnits="userSpaceOnUse">
<stop stop-color="#89C5CC"/>
<stop offset="1" stop-color="#89C5CC"/>
</linearGradient>
<linearGradient id="paint16_linear_1_71" x1="38.076" y1="132.482" x2="-17.486" y2="-5.76507" gradientUnits="userSpaceOnUse">
<stop stop-color="#89C5CC"/>
<stop offset="1" stop-color="#89C5CC"/>
</linearGradient>
<linearGradient id="paint17_linear_1_71" x1="38.076" y1="132.482" x2="-17.486" y2="-5.76498" gradientUnits="userSpaceOnUse">
<stop stop-color="#89C5CC"/>
<stop offset="1" stop-color="#89C5CC"/>
</linearGradient>
<linearGradient id="paint18_linear_1_71" x1="60.7189" y1="132.482" x2="5.1569" y2="-5.76482" gradientUnits="userSpaceOnUse">
<stop stop-color="#89C5CC"/>
<stop offset="1" stop-color="#89C5CC"/>
</linearGradient>
<linearGradient id="paint19_linear_1_71" x1="60.719" y1="132.482" x2="5.15704" y2="-5.76502" gradientUnits="userSpaceOnUse">
<stop stop-color="#89C5CC"/>
<stop offset="1" stop-color="#89C5CC"/>
</linearGradient>
<linearGradient id="paint20_linear_1_71" x1="83.3617" y1="132.482" x2="27.7998" y2="-5.76482" gradientUnits="userSpaceOnUse">
<stop stop-color="#89C5CC"/>
<stop offset="1" stop-color="#89C5CC"/>
</linearGradient>
<linearGradient id="paint21_linear_1_71" x1="83.3623" y1="132.482" x2="27.8003" y2="-5.76502" gradientUnits="userSpaceOnUse">
<stop stop-color="#89C5CC"/>
<stop offset="1" stop-color="#89C5CC"/>
</linearGradient>
<linearGradient id="paint22_linear_1_71" x1="106.005" y1="132.482" x2="50.4426" y2="-5.76482" gradientUnits="userSpaceOnUse">
<stop stop-color="#89C5CC"/>
<stop offset="1" stop-color="#89C5CC"/>
</linearGradient>
<linearGradient id="paint23_linear_1_71" x1="106.005" y1="132.482" x2="50.443" y2="-5.76502" gradientUnits="userSpaceOnUse">
<stop stop-color="#89C5CC"/>
<stop offset="1" stop-color="#89C5CC"/>
</linearGradient>
<linearGradient id="paint24_linear_1_71" x1="38.076" y1="152.509" x2="-17.486" y2="14.2617" gradientUnits="userSpaceOnUse">
<stop stop-color="#89C5CC"/>
<stop offset="1" stop-color="#89C5CC"/>
</linearGradient>
<linearGradient id="paint25_linear_1_71" x1="38.076" y1="152.509" x2="-17.486" y2="14.2615" gradientUnits="userSpaceOnUse">
<stop stop-color="#89C5CC"/>
<stop offset="1" stop-color="#89C5CC"/>
</linearGradient>
<linearGradient id="paint26_linear_1_71" x1="60.7189" y1="152.509" x2="5.1569" y2="14.2617" gradientUnits="userSpaceOnUse">
<stop stop-color="#89C5CC"/>
<stop offset="1" stop-color="#89C5CC"/>
</linearGradient>
<linearGradient id="paint27_linear_1_71" x1="60.719" y1="152.509" x2="5.15704" y2="14.2614" gradientUnits="userSpaceOnUse">
<stop stop-color="#89C5CC"/>
<stop offset="1" stop-color="#89C5CC"/>
</linearGradient>
<linearGradient id="paint28_linear_1_71" x1="83.3617" y1="152.509" x2="27.7998" y2="14.2617" gradientUnits="userSpaceOnUse">
<stop stop-color="#89C5CC"/>
<stop offset="1" stop-color="#89C5CC"/>
</linearGradient>
<linearGradient id="paint29_linear_1_71" x1="83.3623" y1="152.509" x2="27.8003" y2="14.2614" gradientUnits="userSpaceOnUse">
<stop stop-color="#89C5CC"/>
<stop offset="1" stop-color="#89C5CC"/>
</linearGradient>
<linearGradient id="paint30_linear_1_71" x1="106.005" y1="152.509" x2="50.4426" y2="14.2617" gradientUnits="userSpaceOnUse">
<stop stop-color="#89C5CC"/>
<stop offset="1" stop-color="#89C5CC"/>
</linearGradient>
<linearGradient id="paint31_linear_1_71" x1="106.005" y1="152.509" x2="50.443" y2="14.2614" gradientUnits="userSpaceOnUse">
<stop stop-color="#89C5CC"/>
<stop offset="1" stop-color="#89C5CC"/>
</linearGradient>
</defs>
</svg>
